<?xml version="1.0" encoding="utf-8"?>
<!-- Generator: Adobe Illustrator 25.4.1, SVG Export Plug-In . SVG Version: 6.00 Build 0)  -->
<svg version="1.1" id="Слой_1" xmlns="http://www.w3.org/2000/svg" xmlns:xlink="http://www.w3.org/1999/xlink" x="0px" y="0px"
	 viewBox="0 0 220.4 220.4" style="enable-background:new 0 0 220.4 220.4;" xml:space="preserve">
<path d="M110.6,217.7h93.9c7.2,0,12.6-6.1,11-12.5L177.7,49.7c-1.1-4.7-5.7-8-11-8h-56.1H109H52.9c-5.3,0-9.9,3.3-11,8L4.1,205.2
	c-1.6,6.4,3.8,12.5,11,12.5H109H110.6z"/>
<ellipse style="fill:none;stroke:#000000;stroke-width:18;stroke-miterlimit:10;" cx="109.8" cy="47.2" rx="28.5" ry="33.5"/>
<g>
	<g>
		<path style="fill:#FFFFFF;" d="M110.4,160.6c-3.8,0-7.1-0.7-10-2.1s-5.3-3.3-7-5.7s-2.6-5.2-2.7-8.3h11.1c0.1,2.1,1,3.8,2.7,5.1
			s3.6,2,5.9,2c1.8,0,3.4-0.4,4.8-1.2c1.4-0.8,2.5-1.9,3.3-3.4c0.8-1.4,1.2-3.1,1.2-5c0-1.9-0.4-3.6-1.2-5c-0.8-1.5-1.9-2.6-3.3-3.4
			c-1.4-0.8-3-1.2-4.9-1.2c-1.6,0-3.1,0.3-4.6,1s-2.7,1.5-3.5,2.7l-10.2-1.8l2.6-28.7h33.2v9.4h-23.8l-1.4,13.6h0.3
			c1-1.3,2.4-2.5,4.3-3.3c1.9-0.9,4.1-1.3,6.5-1.3c3.3,0,6.2,0.8,8.8,2.3c2.6,1.5,4.6,3.6,6.1,6.3s2.2,5.8,2.2,9.2
			c0,3.7-0.8,6.9-2.5,9.8s-4.1,5.1-7.1,6.7S114.4,160.6,110.4,160.6z"/>
	</g>
</g>
</svg>
