<?xml version="1.0" encoding="utf-8"?>
<!-- Generator: Adobe Illustrator 25.4.1, SVG Export Plug-In . SVG Version: 6.00 Build 0)  -->
<svg version="1.1" id="Слой_1" xmlns="http://www.w3.org/2000/svg" xmlns:xlink="http://www.w3.org/1999/xlink" x="0px" y="0px"
	 viewBox="0 0 220.4 220.4" style="enable-background:new 0 0 220.4 220.4;" xml:space="preserve">
<path d="M110.6,217.7h93.9c7.2,0,12.6-6.1,11-12.5L177.7,49.7c-1.1-4.7-5.7-8-11-8h-56.1H109H52.9c-5.3,0-9.9,3.3-11,8L4.1,205.2
	c-1.6,6.4,3.8,12.5,11,12.5H109H110.6z"/>
<ellipse style="fill:none;stroke:#000000;stroke-width:18;stroke-miterlimit:10;" cx="109.8" cy="47.2" rx="28.5" ry="33.5"/>
<g>
	<g>
		<path style="fill:#FFFFFF;" d="M110,160.6c-4,0-7.5-0.7-10.6-2.1c-3.1-1.4-5.5-3.3-7.3-5.7c-1.8-2.4-2.7-5.2-2.7-8.4H101
			c0.1,1.3,0.5,2.5,1.3,3.5c0.8,1,1.9,1.8,3.2,2.3c1.3,0.5,2.9,0.8,4.5,0.8c1.8,0,3.3-0.3,4.6-0.9c1.3-0.6,2.4-1.5,3.2-2.6
			c0.8-1.1,1.1-2.4,1.1-3.8c0-1.5-0.4-2.7-1.2-3.9c-0.8-1.1-2-2-3.5-2.6c-1.5-0.6-3.3-1-5.3-1H104v-8.4h5.1c1.7,0,3.3-0.3,4.6-0.9
			s2.4-1.4,3.1-2.5c0.7-1.1,1.1-2.3,1.1-3.8c0-1.4-0.3-2.6-1-3.6c-0.6-1-1.5-1.8-2.7-2.4c-1.2-0.6-2.5-0.9-4-0.9
			c-1.6,0-3,0.3-4.3,0.8c-1.3,0.6-2.3,1.3-3.1,2.4c-0.8,1-1.2,2.2-1.2,3.6h-11c0.1-3.1,0.9-5.9,2.7-8.3c1.7-2.4,4.1-4.3,7-5.6
			s6.3-2,10-2c3.8,0,7,0.7,9.8,2s5,3.2,6.6,5.5c1.6,2.3,2.3,4.9,2.3,7.8c0,3-0.9,5.6-2.8,7.6c-1.9,2-4.4,3.3-7.4,3.9v0.4
			c4,0.5,7,1.9,9.1,4.2c2.1,2.3,3.1,5.1,3.1,8.5c0,3.1-0.9,5.8-2.7,8.3c-1.8,2.4-4.3,4.3-7.4,5.7C117.7,159.9,114.1,160.6,110,160.6
			z"/>
	</g>
</g>
</svg>
