<?xml version="1.0" encoding="utf-8"?>
<!-- Generator: Adobe Illustrator 25.4.1, SVG Export Plug-In . SVG Version: 6.00 Build 0)  -->
<svg version="1.1" id="Слой_1" xmlns="http://www.w3.org/2000/svg" xmlns:xlink="http://www.w3.org/1999/xlink" x="0px" y="0px"
	 viewBox="0 0 56 56" style="enable-background:new 0 0 56 56;" xml:space="preserve">
<path d="M46.8,15.8l1.8-1.8c0.5-0.5,0.9-1.3,0.9-1.9c0-1.3-1.1-2.4-2.4-2.4c-0.8,0-1.4,0.2-1.9,0.8l-1.8,1.8c-3.6-3-8-5.1-12.9-5.6
	V4.3c0-1.4-1.1-2.6-2.5-2.6c-1.4,0-2.5,1.2-2.5,2.6v2.3C13.5,7.9,4.1,18.2,4.1,30.4c0,13.1,10.8,23.9,23.9,23.9
	c13,0,23.9-10.8,23.9-23.9C51.9,24.9,50,19.8,46.8,15.8z M30.6,33.1c-1.5,1.5-3.9,1.4-5.3-0.1c-1-1.1-1.3-2.6-0.8-4l-8.1-8.4
	c-0.6-0.6-0.6-1.6,0-2.3c0.7-0.6,1.7-0.6,2.3,0l8.1,8.4c1.4-0.4,2.9-0.1,3.9,1C32.2,29.3,32.1,31.7,30.6,33.1z"/>
</svg>
