<?xml version="1.0" encoding="utf-8"?>
<!-- Generator: Adobe Illustrator 25.4.1, SVG Export Plug-In . SVG Version: 6.00 Build 0)  -->
<svg version="1.1" id="Слой_1" xmlns="http://www.w3.org/2000/svg" xmlns:xlink="http://www.w3.org/1999/xlink" x="0px" y="0px"
	 viewBox="0 0 56 56" style="enable-background:new 0 0 56 56;" xml:space="preserve">
<path d="M46.8,15.8l1.8-1.8c0.5-0.5,0.9-1.3,0.9-1.9c0-1.3-1.1-2.4-2.4-2.4c-0.8,0-1.4,0.2-1.9,0.8l-1.8,1.8c-3.6-3-8-5.1-12.9-5.6
	V4.3c0-1.4-1.1-2.6-2.5-2.6c-1.4,0-2.5,1.2-2.5,2.6v2.3C13.5,7.9,4.1,18.2,4.1,30.4c0,13.1,10.8,23.9,23.9,23.9
	c13,0,23.9-10.8,23.9-23.9C51.9,24.9,50,19.8,46.8,15.8z M37,18.2l-5.9,10c0.8,1.2,0.9,2.7,0.1,4c-1.1,1.8-3.3,2.4-5.1,1.4
	c-1.8-1.1-2.4-3.4-1.4-5.2c0.8-1.3,2.1-1.9,3.6-1.9l5.9-10c0.5-0.8,1.4-1,2.2-0.6C37.2,16.5,37.5,17.5,37,18.2z"/>
</svg>
