<?xml version="1.0" encoding="utf-8"?>
<!-- Generator: Adobe Illustrator 24.2.3, SVG Export Plug-In . SVG Version: 6.00 Build 0)  -->
<svg version="1.1" id="Слой_1" xmlns="http://www.w3.org/2000/svg" xmlns:xlink="http://www.w3.org/1999/xlink" x="0px" y="0px"
	 viewBox="0 0 286 859" style="enable-background:new 0 0 286 859;" xml:space="preserve">
<style type="text/css">
	.st0{fill:#029ABF;}
	.st1{fill:#0097CC;}
	.st2{fill:#01A2D6;}
	.st3{fill:#3FC7FB;}
	.st4{fill:#75C5E2;}
	.st5{fill:#86D0E9;}
	.st6{fill:#C2E9F8;}
	.st7{fill:#EEF8FB;}
	.st8{fill:#FDFDFD;}
</style>
<g id="layer101">
	<path class="st0" d="M263.9,626.6c-0.9,0.5-1-0.1-0.3-2.2c1.2-4.3,1.7-260.7,0.4-259.9c-0.5,0.3-1,0.1-1-0.4c0-0.6,0.5-1.1,1-1.1
		c0.6,0,1-10.7,1-30.1c0-12-0.1-20.2-0.3-24.8c0-0.2-0.1-0.5-0.1-0.7c-0.1-0.3-0.2-0.7-0.3-1c-0.1-0.4-0.1-0.8-0.2-1.2
		c0-0.2,0-0.4-0.1-0.6c0,0.2,0-0.2,0-0.2c0-0.2-0.1-0.3-0.1-0.5c0-0.1,0-0.2-0.1-0.2c0,0,0,0,0,0c0,0,0-0.1,0-0.1
		c-0.5-0.2-0.6-2.7-0.4-7.8c-0.1-0.6-0.2-1.2-0.3-1.8c-0.2-1.8-0.4-3.6-0.4-5.4c-0.3-0.2-0.3-2.6-0.1-7.3c0-0.2,0-0.4,0-0.6
		c-0.1-0.6-0.2-1.2-0.2-1.7c-0.1-0.8-0.1-1.6-0.3-2.3c-0.1-0.5-0.2-1-0.2-1.5c0-0.2,0-0.3,0-0.5c0-0.1,0-0.2,0-0.3
		c0,0.1,0,0.1,0-0.1c-0.2-0.6-0.4-1.1-0.4-1.6c-0.2-0.4-0.3-1.5-0.1-3.4c0-0.2-0.1-0.4-0.1-0.5c-0.1-0.4-0.1-0.9-0.2-1.3
		c0-0.1,0-0.3,0-0.4c0,0,0,0,0,0c0,0,0-0.1,0-0.1c-0.1-0.5-0.2-1-0.2-1.5c-0.4,0.4-0.6-0.7-0.8-3.5c-0.2-1.9-0.1-3.4,0.1-4.2
		c0-0.2,0-0.5,0-0.7c-0.1-0.9-0.2-1.8-0.2-2.6c-0.2-1.1-0.4-2.5-0.5-4c-0.1-2.8-1-6.6-1.8-8.3c-0.9-1.7-1.4-3.7-1.1-4.5
		c0.3-0.9-0.4-3.4-1.5-5.6c-1.1-2.2-2.2-5.7-2.4-7.7s-0.6-4.5-1-5.6c-2-5.6-6.8-17.1-7.4-17.5c-0.3-0.3-0.8-1.6-0.9-2.9
		c-0.4-2.3-3.7-7.9-5.5-9.2c-0.5-0.3-0.9-1.3-1-2.1c-0.4-2.1-6.7-11.8-7.9-11.8c-0.5,0-0.6-0.4-0.3-1c0,0,0,0,0-0.1c0,0,0,0,0,0
		c-0.1-0.1-0.1-0.1-0.2-0.2c-0.1-0.1-0.2-0.1-0.3-0.2c-0.2-0.1-0.3-0.2-0.4-0.4c0-0.1-0.1-0.2-0.1-0.2c0-0.1,0-0.1,0-0.2
		c-0.3-0.3-0.4-0.6-0.4-1.1c0-0.7-2.2-3.7-4.8-6.5c-2.7-2.8-4.6-5.3-4.4-5.6c0.2-0.2-3.3-4.4-7.8-9.2c-3.3-3.5-5.8-6.2-7.8-8.2
		c-1.1-0.5-2-1.5-2.9-2.1c-0.6-0.4-1.1-0.9-1.7-1.4c-0.1,0-0.1-0.1-0.2-0.1c-0.4,0-0.8-0.3-0.9-0.7c0,0,0-0.1,0-0.2c0,0-0.1-0.1,0,0
		c-0.1-0.1-0.3-0.3-0.4-0.4c-0.2-0.2-0.5-0.4-0.8-0.6c-0.2-0.2-0.4-0.4-0.4-0.6c0,0,0,0,0,0c-0.5-0.1-0.9-0.4-0.9-0.9
		c0-0.6-2.1-2.9-4.6-5.3l-4.6-4.4l-0.7-8.7c-0.7-9.8-0.4-10.4,5.2-11.4c0.5-0.1,1-0.2,1.4-0.3c0.4-0.3,1-0.5,1.4-0.8
		c0.8-0.6,1.3-1.5,1.7-2.4c0.5-1.1,0.7-2.1,0.6-3.3c0-0.3-0.1-0.6-0.1-0.9c-0.2-0.3-0.3-0.6-0.3-0.9c0-2-3.2-4.4-6.5-4.8
		c-2.6-0.3-3-0.8-3.3-3.7c-0.6-6.4,0.3-8,5.1-8.3c3.6-0.3,4.2-0.6,4.5-2.8c0.2-1.4,0.8-3,1.3-3.6c0.5-0.7,0.9-9.6,0.8-20
		c-0.1-20-0.7-23.4-5.2-28.3c-4.6-5-5.6-5-48.9-4.8l-40.5,0.2l-3.5,2.7c-6.1,4.7-7,9.3-6.6,33.7c0.1,11.5,0.7,21.3,1.1,21.7
		c0.4,0.5,2.9,1.1,5.5,1.4l4.7,0.5l0.3,4.8c0.4,5-0.9,7.3-4.1,7.1c-0.5,0.1-1,0.1-1.5,0.1c0,0-0.1,0-0.1,0c-0.1,0-0.3,0.1-0.4,0.1
		c-0.3,0.1-0.6,0.2-0.9,0.2c-0.7,0.4-1.4,0.7-2.1,1c-0.2,0.2-0.4,0.4-0.6,0.6C92,96,91,98.1,91,99.2c0,2.7,4.5,6.8,7.5,6.8
		c0.5,0,0.9,0,1.3,0.1c0.2,0,0.4,0,0.7,0c0.3,0,0.6,0.1,0.9,0.2c0.3,0.1,0.5,0.4,0.6,0.6c0.4,0.8,0.3,1.7,0.4,2.5
		c0,0.1,0,0.2,0.1,0.3l-0.1-0.2c0.1,0.2,0.1,0.5,0.1,0.7c0.1,0.3,0.1,0.7,0.1,1c0,0.5,0.1,1,0.1,1.5c0,0.2,0,0.5,0,0.7
		c0.1,0.2,0.1,0.5,0,0.7c0.1,0.6,0.2,1.7,0.2,3.4c0.1,5.2-0.1,5.5-6.1,12c-3.5,3.7-6.7,6.9-7.2,7.1c-0.6,0.2-2.1,1.6-3.4,3
		c-1.3,1.4-4.3,4.6-6.7,7.1c-2.3,2.5-4.5,5.4-4.9,6.4c-0.3,1-0.9,1.6-1.2,1.3c-0.7-0.7-6.4,5.7-6.4,7.2c0,0.6-0.4,1.1-1,1.1
		c-0.5,0-1,0.8-1,1.7c0,0.9-0.3,1.4-0.6,1c-0.7-0.7-3.2,2.2-8.5,9.8c-5.4,7.7-9,14.1-8.2,14.8c0.3,0.4,0.2,0.7-0.4,0.7
		c-1.3,0-6.3,10.2-6.3,12.9c0,1-0.5,2.1-1,2.3c-0.6,0.2-1.2,1.3-1.3,2.5c0,1.2-0.4,2-0.8,1.7c-0.4-0.2-1,0.8-1.4,2.4
		c-0.5,1.5-0.9,3.2-1.1,3.7c-0.2,0.6-0.6,2.6-1,4.5c-0.3,1.9-1,3.6-1.5,3.8s-3.1,11.4-3.8,14.5c-1.3,5.9-1.8,8.1-2.5,10.5
		c-0.9,3-2,14.6-1.8,19.4c0.1,2.6-0.4,7.4-1.1,10.5c-1.1,4.5-1.3,14.4-0.9,42.7c0.3,27.2-1.6,39-0.9,40.8c0.5,1.4,0.6,4.1,0.3,5.9
		c-0.4,1.9-0.3,102,0.1,222.4l0.9,219l2.5,5.4c2.9,6,12.1,16.4,16.8,18.9c1.7,0.8,5.5,2.4,8.5,3.4c6.3,2,19.1,2.1,19.8,0
		c0.2-0.6,1.4-1.1,2.9-1.2c-12.7-8.5-20.1-23.1-19.9-38.3c0.1-6.6,1.3-11.3,3.2-16.2c0,0,0,0,0-0.1c-0.6-3.3-1-6.7-0.9-10
		c0.2-7.5,1.9-13.3,4.7-19.9c4.1-9.8,10.5-17.2,18.8-23.6c11.1-8.6,24.6-12.9,37.7-17.4c14.9-5.1,32-5.3,47-0.6
		c6.9,2.1,14.3,5.1,20.4,9.2c3.8,2.6,7.5,5.3,11.4,7.8c15.6,9.9,23,26.8,20.6,43.8c6.1,2.8,11.4,7.7,15.6,13
		c5.8-4.2,13.6-6.5,20.1-7.4c4.4-0.6,8.5-0.5,12.5,0.1C265.3,726.7,265,625.9,263.9,626.6z M263.7,319.7c0.2,7.2,0.2,19.4,0,27
		c-0.1,7.6-0.3,1.7-0.3-13.2C263.4,318.7,263.6,312.4,263.7,319.7z M263.7,757.2c-0.1,23.8-0.2,4.4-0.2-43.2c0-47.6,0.1-67,0.2-43.3
		C263.9,694.5,263.9,733.5,263.7,757.2z"/>
</g>
<g id="layer102">
	<path class="st1" d="M263.9,626.6c-0.9,0.5-1-0.1-0.3-2.2c1.2-4.3,1.7-260.7,0.4-259.9c-0.5,0.3-1,0.1-1-0.4c0-0.6,0.5-1.1,1-1.1
		c0.6,0,1-10.7,1-30.1c0-12-0.1-20.2-0.3-24.8c0-0.2-0.1-0.5-0.1-0.7c-0.1-0.3-0.2-0.7-0.3-1c-0.1-0.4-0.1-0.8-0.2-1.2
		c0-0.2,0-0.4-0.1-0.6c0,0.2,0-0.2,0-0.2c0-0.2-0.1-0.3-0.1-0.5c0-0.1,0-0.2-0.1-0.2c0,0,0,0,0,0c0,0,0-0.1,0-0.1
		c-0.5-0.2-0.6-2.7-0.4-7.8c-0.1-0.6-0.2-1.2-0.3-1.8c-0.2-1.8-0.4-3.6-0.4-5.4c-0.3-0.2-0.3-2.6-0.1-7.3c0-0.2,0-0.4,0-0.6
		c-0.1-0.6-0.2-1.2-0.2-1.7c-0.1-0.8-0.1-1.6-0.3-2.3c-0.1-0.5-0.2-1-0.2-1.5c0-0.2,0-0.3,0-0.5c0-0.1,0-0.2,0-0.3
		c0,0.1,0,0.1,0-0.1c-0.2-0.6-0.4-1.1-0.4-1.6c-0.2-0.4-0.3-1.5-0.1-3.4c0-0.2-0.1-0.4-0.1-0.5c-0.1-0.4-0.1-0.9-0.2-1.3
		c0-0.1,0-0.3,0-0.4c0,0,0,0,0,0c0,0,0-0.1,0-0.1c-0.1-0.5-0.2-1-0.2-1.5c-0.4,0.4-0.6-0.7-0.8-3.5c-0.2-1.9-0.1-3.4,0.1-4.2
		c0-0.2,0-0.5,0-0.7c-0.1-0.9-0.2-1.8-0.2-2.6c-0.2-1.1-0.4-2.5-0.5-4c-0.1-2.8-1-6.6-1.8-8.3c-0.9-1.7-1.4-3.7-1.1-4.5
		c0.3-0.9-0.4-3.4-1.5-5.6c-1.1-2.2-2.2-5.7-2.4-7.7s-0.6-4.5-1-5.6c-2-5.6-6.8-17.1-7.4-17.5c-0.3-0.3-0.8-1.6-0.9-2.9
		c-0.4-2.3-3.7-7.9-5.5-9.2c-0.5-0.3-0.9-1.3-1-2.1c-0.4-2.1-6.7-11.8-7.9-11.8c-0.5,0-0.6-0.4-0.3-1c0,0,0,0,0-0.1c0,0,0,0,0,0
		c-0.1-0.1-0.1-0.1-0.2-0.2c-0.1-0.1-0.2-0.1-0.3-0.2c-0.2-0.1-0.3-0.2-0.4-0.4c0-0.1-0.1-0.2-0.1-0.2c0-0.1,0-0.1,0-0.2
		c-0.3-0.3-0.4-0.6-0.4-1.1c0-0.7-2.2-3.7-4.8-6.5c-2.7-2.8-4.6-5.3-4.4-5.6c0.2-0.2-3.3-4.4-7.8-9.2c-3.3-3.5-5.8-6.2-7.8-8.2
		c-1.1-0.5-2-1.5-2.9-2.1c-0.6-0.4-1.1-0.9-1.7-1.4c-0.1,0-0.1-0.1-0.2-0.1c-0.4,0-0.8-0.3-0.9-0.7c0,0,0-0.1,0-0.2c0,0-0.1-0.1,0,0
		c-0.1-0.1-0.3-0.3-0.4-0.4c-0.2-0.2-0.5-0.4-0.8-0.6c-0.2-0.2-0.4-0.4-0.4-0.6c0,0,0,0,0,0c-0.5-0.1-0.9-0.4-0.9-0.9
		c0-0.6-2.1-2.9-4.6-5.3l-4.6-4.4l-0.7-8.7c-0.7-9.8-0.4-10.4,5.2-11.4c0.5-0.1,1-0.2,1.4-0.3c0.4-0.3,1-0.5,1.4-0.8
		c0.8-0.6,1.3-1.5,1.7-2.4c0.5-1.1,0.7-2.1,0.6-3.3c0-0.3-0.1-0.6-0.1-0.9c-0.2-0.3-0.3-0.6-0.3-0.9c0-2-3.2-4.4-6.5-4.8
		c-2.6-0.3-3-0.8-3.3-3.7c-0.6-6.4,0.3-8,5.1-8.3c3.6-0.3,4.2-0.6,4.5-2.8c0.2-1.4,0.8-3,1.3-3.6c0.5-0.7,0.9-9.6,0.8-20
		c-0.1-20-0.7-23.4-5.2-28.3c-4.6-5-5.6-5-48.9-4.8l-40.5,0.2l-3.5,2.7c-6,4.6-7,9.7-6.6,34.1c0.1,11.3,0.7,20.9,1.1,21.3
		c0.4,0.5,2.9,1.1,5.5,1.4l4.7,0.5l0.3,4.8c0.4,5-0.9,7.3-4.1,7.1c-0.5,0.1-1,0.1-1.5,0.1c0,0-0.1,0-0.1,0c-0.1,0-0.3,0.1-0.4,0.1
		c-0.3,0.1-0.6,0.2-0.9,0.2c-0.7,0.4-1.4,0.7-2.1,1c-0.2,0.2-0.4,0.4-0.6,0.6C92,96,91,98.1,91,99.2c0,2.7,4.5,6.8,7.5,6.8
		c0.5,0,0.9,0,1.3,0.1c0.2,0,0.4,0,0.7,0c0.3,0,0.6,0.1,0.9,0.2c0.3,0.1,0.5,0.4,0.6,0.6c0.4,0.8,0.3,1.7,0.4,2.5
		c0,0.1,0,0.2,0.1,0.3l-0.1-0.2c0.1,0.2,0.1,0.5,0.1,0.7c0.1,0.3,0.1,0.7,0.1,1c0,0.5,0.1,1,0.1,1.5c0,0.2,0,0.5,0,0.7
		c0.1,0.2,0.1,0.5,0,0.7c0.1,0.6,0.2,1.7,0.2,3.4c0.1,5.2-0.1,5.5-6.1,12c-3.5,3.7-6.7,6.9-7.2,7.1c-0.6,0.2-2.1,1.6-3.4,3
		c-1.3,1.4-4.3,4.6-6.7,7.1c-2.3,2.5-4.5,5.4-4.9,6.4c-0.3,1-0.9,1.6-1.2,1.3c-0.7-0.7-6.4,5.7-6.4,7.2c0,0.6-0.4,1.1-1,1.1
		c-0.5,0-1,0.8-1,1.7c0,0.9-0.3,1.4-0.6,1c-0.7-0.7-3.2,2.2-8.5,9.8c-5.4,7.7-9,14.1-8.2,14.8c0.3,0.4,0.2,0.7-0.4,0.7
		c-1.3,0-6.3,10.2-6.3,12.9c0,1-0.5,2.1-1,2.3c-0.6,0.2-1.2,1.3-1.3,2.5c0,1.2-0.4,2-0.8,1.7c-0.4-0.2-1,0.8-1.4,2.4
		c-0.5,1.5-0.9,3.2-1.1,3.7c-0.2,0.6-0.6,2.6-1,4.5c-0.3,1.9-1.3,3.3-1.5,3.8c-0.5,1.5-3.1,11.4-3.8,14.5c-1.3,5.9-1.8,8.1-2.5,10.5
		c-0.9,3-2,14.6-1.8,19.4c0.1,2.6-0.4,7.4-1.1,10.5c-1.1,4.5-1.3,14.4-0.9,42.7c0.3,27.2-0.3,44.9-0.6,46.7
		c-0.4,1.9-0.3,102,0.1,222.4l0.9,219l2.5,5.4c2.9,6,12.1,16.4,16.8,18.9c1.7,0.8,5.5,2.4,8.5,3.4c6.3,2,19.1,2.1,19.8,0
		c0.2-0.6,1.4-1.1,2.9-1.2c-12.7-8.5-20.1-23.1-19.9-38.3c0.1-6.6,1.3-11.3,3.2-16.2c0,0,0,0,0-0.1c-0.6-3.3-1-6.7-0.9-10
		c0.2-7.5,1.9-13.3,4.7-19.9c4.1-9.8,10.5-17.2,18.8-23.6c11.1-8.6,24.6-12.9,37.7-17.4c14.9-5.1,32-5.3,47-0.6
		c6.9,2.1,14.3,5.1,20.4,9.2c3.8,2.6,7.5,5.3,11.4,7.8c15.6,9.9,23,26.8,20.6,43.8c6.1,2.8,11.4,7.7,15.6,13
		c5.8-4.2,13.6-6.5,20.1-7.4c4.4-0.6,8.5-0.5,12.5,0.1C265.3,726.7,265,625.9,263.9,626.6z M263.7,319.7c0.2,7.2,0.2,19.4,0,27
		c-0.1,7.6-0.3,1.7-0.3-13.2C263.4,318.7,263.6,312.4,263.7,319.7z M100.6,449.4c-0.3,2.1-1.3,2.9-2,1.8c-0.3-0.5,0.1-1.5,0.8-2.1
		C100.5,448.1,100.8,448.2,100.6,449.4z M263.7,757.2c-0.1,23.8-0.2,4.4-0.2-43.2c0-47.6,0.1-67,0.2-43.3
		C263.9,694.5,263.9,733.5,263.7,757.2z"/>
</g>
<g id="layer103">
	<path class="st2" d="M263.7,368.4c0.9,0.5,1.3-0.1,1.3-1.9c0-1.5-0.4-2.4-1-2c-0.5,0.3-1,0.1-1-0.4c0-0.6,0.5-1.1,1-1.1
		c0.6,0,1-10.7,1-30.1c0-12-0.1-20.2-0.3-24.8c0-0.2-0.1-0.5-0.1-0.7c-0.1-0.3-0.2-0.7-0.3-1c-0.1-0.4-0.1-0.8-0.2-1.2
		c0-0.2,0-0.4-0.1-0.6c0,0.2,0-0.2,0-0.2c0-0.2-0.1-0.3-0.1-0.5c0-0.1,0-0.2-0.1-0.2c0,0,0,0,0,0c0,0,0-0.1,0-0.1
		c-0.5-0.2-0.6-2.7-0.4-7.8c-0.1-0.6-0.2-1.2-0.3-1.8c-0.2-1.8-0.4-3.6-0.4-5.4c-0.3-0.2-0.3-2.6-0.1-7.3c0-0.2,0-0.4,0-0.6
		c-0.1-0.6-0.2-1.2-0.2-1.7c-0.1-0.8-0.1-1.6-0.3-2.3c-0.1-0.5-0.2-1-0.2-1.5c0-0.2,0-0.3,0-0.5c0-0.1,0-0.2,0-0.3
		c0,0.1,0,0.1,0-0.1c-0.2-0.6-0.4-1.1-0.4-1.6c-0.2-0.4-0.3-1.5-0.1-3.4c0-0.2-0.1-0.4-0.1-0.5c-0.1-0.4-0.1-0.9-0.2-1.3
		c0-0.1,0-0.3,0-0.4c0,0,0,0,0,0c0,0,0-0.1,0-0.1c-0.1-0.5-0.2-1-0.2-1.5c-0.4,0.4-0.6-0.7-0.8-3.5c-0.2-1.9-0.1-3.4,0.1-4.2
		c0-0.2,0-0.5,0-0.7c-0.1-0.9-0.2-1.8-0.2-2.6c-0.2-1.1-0.4-2.5-0.5-4c-0.1-2.8-1-6.6-1.8-8.3c-0.9-1.7-1.4-3.7-1.1-4.5
		c0.3-0.9-0.4-3.4-1.5-5.6c-1.1-2.2-2.2-5.7-2.4-7.7s-0.6-4.5-1-5.6c-2-5.6-6.8-17.1-7.4-17.5c-0.3-0.3-0.8-1.6-0.9-2.9
		c-0.4-2.3-3.7-7.9-5.5-9.2c-0.5-0.3-0.9-1.3-1-2.1c-0.4-2.1-6.7-11.8-7.9-11.8c-0.5,0-0.6-0.4-0.3-1c0,0-0.1-0.1-0.1-0.1
		c0,0,0,0,0,0c-0.1-0.1-0.1-0.1-0.2-0.2c-0.1-0.1-0.2-0.1-0.3-0.2c-0.2-0.1-0.3-0.2-0.4-0.4c0-0.1-0.1-0.2-0.1-0.2
		c0-0.1,0-0.1,0-0.2c-0.2-0.3-0.4-0.6-0.4-1.1c0-0.7-2.2-3.7-4.8-6.5c-2.7-2.8-4.6-5.3-4.4-5.6c0.2-0.2-3.3-4.4-7.8-9.2
		c-3.3-3.5-5.9-6.2-7.8-8.2c-1.1-0.5-2-1.5-2.9-2.1c-0.6-0.4-1.1-0.9-1.7-1.4c-0.1,0-0.1-0.1-0.2-0.1c-0.4,0-0.8-0.3-0.9-0.7
		c0,0,0-0.1,0-0.2c0,0-0.1-0.1,0,0c-0.1-0.1-0.3-0.3-0.4-0.4c-0.2-0.2-0.5-0.4-0.8-0.6c-0.2-0.2-0.4-0.4-0.4-0.6c0,0,0,0,0,0
		c-0.5-0.1-0.9-0.4-0.9-0.9c0-0.6-2.1-2.9-4.6-5.3l-4.6-4.4l-0.7-8.7c-0.7-9.8-0.4-10.4,5.2-11.4c0.5-0.1,1-0.2,1.4-0.3
		c0.4-0.3,1-0.5,1.4-0.8c0.8-0.6,1.3-1.5,1.7-2.4c0.5-1.1,0.7-2.1,0.6-3.3c0-0.3-0.1-0.6-0.1-0.9c-0.2-0.3-0.3-0.6-0.3-0.9
		c0-2-3.2-4.4-6.5-4.8c-2.9-0.3-3-0.4-3-5.8c0-3-0.4-5.9-1-6.3c-0.5-0.4,0.7-0.5,2.8-0.1c2.3,0.4,3.7,0.2,3.7-0.4
		c0-0.6,0.9-0.8,2-0.5c1.6,0.4,2,0,2-2c0-1.4,0.5-2.9,1-3.2c1.8-1.1,1.1-38.2-0.7-42.7c-1.4-3.6-7.3-9.8-9.3-9.8
		c-0.4,0-1.6-0.3-2.4-0.6c-1.2-0.5-1.5-0.2-1,1.1c0.6,1.5,0.4,1.6-1.3,0.7c-2.2-1.2-78.4-1.9-80.3-0.7c-0.6,0.3-0.8,1-0.5,1.5
		c0.3,0.4-0.3,1.4-1.3,2.1c-1.5,1.3-1.6,1.2-0.3-0.4c0.8-1,0.9-1.7,0.3-1.7c-1.5,0-5.2,5-5.1,6.9c0,1,0.2,1.2,0.6,0.3
		c0.5-1.3,2.3-0.7,2.3,0.9c0,0.6-0.4,0.8-0.9,0.4c-0.5-0.3-1.7,0.2-2.6,1.1c-1.5,1.5-1.6,4.2-1.3,23.6c0.3,24.1,0.3,23.8,6.7,23.3
		c4.3-0.3,5.1,0.6,5.1,6.3c0,4.6-1.4,6.8-4.3,6.6c-0.5,0.1-1,0.1-1.4,0.1c0,0-0.1,0-0.1,0c-0.1,0-0.3,0.1-0.4,0.1
		c-0.3,0.1-0.6,0.2-0.9,0.2c-0.7,0.4-1.4,0.7-2.1,1c-0.2,0.2-0.4,0.4-0.6,0.6C92,96,91,98.1,91,99.2c0,2.7,4.5,6.8,7.5,6.8
		c0.5,0,0.9,0,1.3,0.1c0.2,0,0.4,0,0.7,0c0.3,0,0.6,0.1,0.9,0.2c0.3,0.1,0.5,0.4,0.6,0.6c0.4,0.8,0.3,1.7,0.4,2.5
		c0,0.1,0,0.2,0.1,0.3l-0.1-0.2c0.1,0.2,0.1,0.5,0.1,0.7c0.1,0.3,0.1,0.7,0.1,1c0,0.5,0.1,1,0.1,1.5c0,0.2,0,0.5,0,0.7
		c0.1,0.2,0.1,0.5,0,0.7c0.1,0.6,0.2,1.7,0.2,3.4c0.1,5.2-0.1,5.5-6.1,12c-3.5,3.7-6.7,6.9-7.2,7.1c-0.6,0.2-2.1,1.6-3.4,3
		c-1.3,1.4-4.3,4.6-6.7,7.1c-2.3,2.5-4.5,5.4-4.9,6.4c-0.3,1-0.9,1.6-1.2,1.3c-0.7-0.7-6.4,5.7-6.4,7.2c0,0.6-0.4,1.1-1,1.1
		c-0.5,0-1,0.8-1,1.7c0,0.9-0.3,1.4-0.6,1c-0.7-0.7-3.2,2.2-8.5,9.8c-5.4,7.7-9,14.1-8.2,14.8c0.3,0.4,0.2,0.7-0.4,0.7
		c-1.3,0-6.3,10.2-6.3,12.9c0,1-0.5,2.1-1,2.3c-0.6,0.2-1.2,1.3-1.3,2.5c0,1.2-0.4,2-0.8,1.7c-0.4-0.2-1,0.8-1.4,2.4
		c-0.5,1.5-0.9,3.2-1.1,3.7c-0.2,0.6-0.6,2.6-1,4.5c-0.3,1.9-1,3.6-1.5,3.8c-0.2,0.8-3.1,11.4-3.8,14.5c-1.3,5.9-1.8,8.1-2.5,10.5
		c-0.9,3-2,14.6-1.8,19.4c0.1,2.6-0.4,7.4-1.1,10.5c-1.1,4.5-1.3,14.4-0.9,42.7c0.3,27.2-0.1,44.2-0.4,45c-0.5,1.3,1.7,1.5,14.5,1.5
		H52l0.3,127L52.5,623h-30l0.3,93.6l0.2,93.6l2.7,5.6c2.9,6.1,12.1,16.5,16.8,19c1.7,0.8,5.5,2.4,8.5,3.4c6.3,2,19.1,2.1,19.8,0
		c0.2-0.6,1.5-1.1,2.9-1.2c-12.7-8.5-20.2-23.1-19.9-38.4c0.1-6.6,1.3-11.3,3.2-16.2c0,0,0,0,0-0.1c-0.6-3.3-1-6.7-0.9-10
		c0.2-7.5,1.9-13.3,4.7-19.9c4.1-9.8,10.5-17.2,18.8-23.6c11.1-8.6,24.6-12.9,37.7-17.4c14.9-5.1,32-5.3,47-0.6
		c6.9,2.1,14.3,5.1,20.4,9.2c3.8,2.6,7.5,5.3,11.4,7.8c15.6,9.9,23,26.8,20.6,43.8c6.1,2.8,11.4,7.7,15.6,13
		c5.8-4.2,13.6-6.5,20.1-7.4c4.3-0.6,8.4-0.5,12.5,0.1c0.5-50.7,0.2-151.9-0.7-151.3c-1.4,0.9,1.5-254.4-0.3-256.7
		C262.8,367.9,262.8,367.8,263.7,368.4z M263.7,319.7c0.2,7.2,0.2,19.4,0,27c-0.1,7.6-0.3,1.7-0.3-13.2
		C263.4,318.7,263.6,312.4,263.7,319.7z M139.5,369.5c-46.2,0-65-0.1-41.7-0.2c23.3-0.2,61.1-0.2,84,0
		C204.7,369.4,185.7,369.5,139.5,369.5z M263.7,670.7c0.2,23.8,0.2,62.8,0,86.5c-0.1,23.8-0.2,4.4-0.2-43.2
		C263.5,666.4,263.6,647,263.7,670.7z"/>
</g>
<g id="layer104">
	<path class="st3" d="M264,626.5c-0.5,0.3-1-0.3-1-1.5c0-2-0.4-2.1-9.2-1.9l-9.3,0.2l-0.3-127.2L244,369l9.2-0.2
		c5.1,0,9.9-0.1,10.6-0.1c0.6,0.1,1.2-1,1.2-2.4c0-1.3-0.4-2.1-1-1.8c-0.5,0.3-1,0.1-1-0.4c0-0.6,0.5-1.1,1-1.1c0.6,0,1-10.7,1-30.1
		c0-12-0.1-20.2-0.3-24.8c0-0.2-0.1-0.5-0.1-0.7c-0.1-0.3-0.2-0.7-0.3-1c-0.1-0.4-0.1-0.8-0.2-1.2c0-0.2,0-0.4-0.1-0.6
		c0,0.2,0-0.2,0-0.2c0-0.2-0.1-0.3-0.1-0.5c0-0.1,0-0.2-0.1-0.2c0,0,0,0,0,0c0,0,0-0.1,0-0.1c-0.5-0.2-0.6-2.7-0.4-7.8
		c-0.1-0.6-0.2-1.2-0.3-1.8c-0.2-1.8-0.4-3.6-0.4-5.4c-0.3-0.2-0.3-2.6-0.1-7.3c0-0.2,0-0.4,0-0.6c-0.1-0.6-0.2-1.2-0.2-1.7
		c-0.1-0.8-0.1-1.6-0.3-2.3c-0.1-0.5-0.2-1-0.2-1.5c0-0.2,0-0.3,0-0.5c0-0.1,0-0.2,0-0.3c0,0.1,0,0.1,0-0.1
		c-0.2-0.6-0.4-1.1-0.4-1.6c-0.2-0.4-0.3-1.5-0.1-3.4c0-0.2-0.1-0.4-0.1-0.5c-0.1-0.4-0.1-0.9-0.2-1.3c0-0.1,0-0.3,0-0.4
		c0,0,0,0,0,0c0,0,0-0.1,0-0.1c-0.1-0.5-0.2-1-0.2-1.5c-0.4,0.4-0.6-0.7-0.8-3.5c-0.2-1.9-0.1-3.4,0.1-4.2c0-0.2,0-0.5,0-0.7
		c-0.1-0.9-0.2-1.8-0.2-2.6c-0.2-1.1-0.4-2.5-0.5-4c-0.1-2.8-1-6.6-1.8-8.3c-0.9-1.7-1.4-3.7-1.1-4.5c0.3-0.9-0.4-3.4-1.5-5.6
		c-1.1-2.2-2.2-5.7-2.4-7.7s-0.6-4.5-1-5.6c-2-5.6-6.8-17.1-7.4-17.5c-0.3-0.3-0.8-1.6-0.9-2.9c-0.4-2.3-3.7-7.9-5.5-9.2
		c-0.5-0.3-0.9-1.3-1-2.1c-0.4-2.1-6.7-11.8-7.9-11.8c-0.5,0-0.6-0.4-0.3-1c0,0,0,0,0-0.1c0,0,0,0,0,0c-0.1-0.1-0.1-0.1-0.2-0.2
		c-0.1-0.1-0.2-0.1-0.3-0.2c-0.2-0.1-0.3-0.2-0.4-0.4c0-0.1-0.1-0.2-0.1-0.2c0-0.1,0-0.1,0-0.2c-0.3-0.3-0.4-0.6-0.4-1.1
		c0-0.7-2.2-3.7-4.8-6.5c-2.7-2.8-4.6-5.3-4.4-5.6c0.2-0.2-3.3-4.4-7.8-9.2c-3.3-3.5-5.8-6.2-7.8-8.2c-1.1-0.5-2-1.5-2.9-2.1
		c-0.6-0.4-1.1-0.9-1.7-1.4c-0.1,0-0.1-0.1-0.2-0.1c-0.4,0-0.8-0.3-0.9-0.7c0,0,0-0.1,0-0.2c0,0-0.1-0.1,0,0
		c-0.1-0.1-0.3-0.3-0.4-0.4c-0.2-0.2-0.5-0.4-0.8-0.6c-0.2-0.2-0.4-0.4-0.4-0.6c0,0,0,0,0,0c-0.5-0.1-0.9-0.4-0.9-0.9
		c0-0.6-2.1-2.9-4.6-5.3l-4.6-4.4l-0.7-8.7c-0.7-9.8-0.4-10.4,5.2-11.4c0.5-0.1,1-0.2,1.4-0.3c0.4-0.3,1-0.5,1.4-0.8
		c0.8-0.6,1.3-1.5,1.7-2.4c0.5-1.1,0.7-2.1,0.6-3.3c0-0.3-0.1-0.6-0.1-0.9c-0.2-0.3-0.3-0.6-0.3-0.9c0-2-3.2-4.4-6.5-4.8
		c-2.9-0.3-3-0.5-3-5.6V81H103v4.6c0,4.8-1.3,7-4.3,6.8c-0.5,0.1-1,0.1-1.5,0.1c0,0-0.1,0-0.1,0c-0.1,0-0.3,0.1-0.4,0.1
		c-0.3,0.1-0.6,0.2-0.9,0.2c-0.7,0.4-1.4,0.7-2.1,1c-0.2,0.2-0.4,0.4-0.6,0.6C92,96,91,98.1,91,99.2c0,2.7,4.5,6.8,7.5,6.8
		c0.5,0,0.9,0,1.3,0.1c0.2,0,0.4,0,0.7,0c0.3,0,0.6,0.1,0.9,0.2c0.3,0.1,0.5,0.4,0.6,0.6c0.4,0.8,0.3,1.7,0.4,2.5
		c0,0.1,0,0.2,0.1,0.3l-0.1-0.2c0.1,0.2,0.1,0.5,0.1,0.7c0.1,0.3,0.1,0.7,0.1,1c0,0.5,0.1,1,0.1,1.5c0,0.2,0,0.5,0,0.7
		c0.1,0.2,0.1,0.5,0,0.7c0.1,0.6,0.2,1.7,0.2,3.4c0.1,5.2-0.1,5.5-6.1,12c-3.5,3.7-6.7,6.9-7.2,7.1c-0.6,0.2-2.1,1.6-3.4,3
		c-1.3,1.4-4.3,4.6-6.7,7.1c-2.3,2.5-4.5,5.4-4.9,6.4c-0.3,1-0.9,1.6-1.2,1.3c-0.7-0.7-6.4,5.7-6.4,7.2c0,0.6-0.4,1.1-1,1.1
		c-0.5,0-1,0.8-1,1.7c0,0.9-0.3,1.4-0.6,1c-0.7-0.7-3.2,2.2-8.5,9.8c-5.4,7.7-9,14.1-8.2,14.8c0.3,0.4,0.2,0.7-0.4,0.7
		c-1.3,0-6.3,10.2-6.3,12.9c0,1-0.5,2.1-1,2.3c-0.6,0.2-1.2,1.3-1.3,2.5c0,1.2-0.4,2-0.8,1.7c-0.4-0.2-1,0.8-1.4,2.4
		c-0.5,1.5-0.9,3.2-1.1,3.7c-0.2,0.6-0.6,2.6-1,4.5c-0.3,1.9-1.3,3.3-1.5,3.8c-0.3,0.7-3.1,11.4-3.8,14.5c-1.3,5.9-1.8,8.1-2.5,10.5
		c-0.9,3-2,14.6-1.8,19.4c0.1,2.6-0.4,7.4-1.1,10.5c-1.1,4.5-1.3,14.4-0.9,42.7c0.3,27.2,0,44.1-0.3,44.5c-0.8,1.4,45.4,2.2,124,2.1
		l77-0.1l0.3,127.1l0.2,127H22.5l0.3,93.6l0.2,93.6l2.7,5.6c2.9,6.1,12.1,16.5,16.8,19c1.7,0.8,5.5,2.4,8.5,3.4
		c6.3,2,19.1,2.1,19.8,0c0.2-0.6,1.4-1.1,2.9-1.2c-12.7-8.5-20.1-23.1-19.9-38.3c0.1-6.6,1.3-11.3,3.2-16.2c0,0,0,0,0-0.1
		c-0.6-3.3-1-6.7-0.9-10c0.2-7.5,1.9-13.3,4.7-19.9c4.1-9.8,10.5-17.2,18.8-23.6c11.1-8.6,24.6-12.9,37.7-17.4
		c14.9-5.1,32-5.3,47-0.6c6.9,2.1,14.3,5.1,20.4,9.2c3.8,2.6,7.5,5.3,11.4,7.8c15.6,9.9,23,26.8,20.6,43.8c6.1,2.8,11.4,7.7,15.6,13
		c5.8-4.2,13.6-6.5,20.1-7.4c4.3-0.6,8.4-0.5,12.5,0.1C265.3,726.7,265,625.9,264,626.5z M263.7,319.7c0.2,7.2,0.2,19.4,0,27
		c-0.1,7.6-0.3,1.7-0.3-13.2C263.4,318.7,263.6,312.4,263.7,319.7z M263.7,757.2c-0.1,23.8-0.2,4.4-0.2-43.2c0-47.6,0.1-67,0.2-43.3
		C263.9,694.5,263.9,733.5,263.7,757.2z"/>
	<path class="st3" d="M133.8,557c-16.8-3-31.3-11.9-40.4-24.6c-13.2-18.4-15.7-39.8-7.3-59.9c3.5-8.3,6.6-13.1,12.3-19.3
		c4.2-4.6,15.3-12.4,19.7-13.7c1.3-0.4,2.9-1.1,3.4-1.5c2.2-1.6,11.4-3.2,19.5-3.5c26.2-0.9,48.8,13.6,58.8,37.7
		c5,12,6.1,23,3.7,35.1c-4.6,22.8-20.1,40.4-41.7,47.2C153.2,557.2,140.9,558.3,133.8,557z"/>
</g>
<g id="layer105">
	<path class="st4" d="M264.1,626.4c-0.5,0.3-1.1-0.3-1.4-1.3c-0.5-1.9-3-2-120.3-2L22.5,623l0.3,93.5L23,810l3,6.1
		c3.1,6.4,10.3,14.6,15.8,18.1c1.9,1.1,5.9,2.9,9,3.9c6.2,2.1,19.3,2.1,20,0c0.2-0.5,1.4-1,2.9-1.1c-3.8-2.5,7.4-25.6,28.8-33.2
		c50.3-17.8,145.3-26,149.8-26.6c4.3-0.6,8.4-0.5,12.4,0.1C265.2,726.7,265,625.9,264.1,626.4z M263.7,757.2
		c-0.1,23.8-0.2,4.4-0.2-43.2c0-47.6,0.1-67,0.2-43.3C263.9,694.5,263.9,733.5,263.7,757.2z"/>
	<path class="st4" d="M123.5,554.2c-20.5-6.9-36.3-24.4-40.5-44.8c-1.3-6.2-1.7-20.2-0.8-24.4c1.7-7.2,2.4-9.1,5.9-16.7
		c13.3-28.2,48.1-41.4,78-29.7c18.9,7.4,34.2,26.5,37.7,46.9c1,5.5,0.5,17.7-0.9,24.3c-4.1,20.1-20.9,38.3-41.1,44.7
		C150.2,558.2,134.7,558.1,123.5,554.2z"/>
	<path class="st4" d="M264.5,307.4c-0.1-0.3-0.5-2.9-0.5-2.9c0-0.2-0.2-0.7-0.2-0.8c0,0,0,0,0,0c0,0,0-0.1,0-0.1
		c-0.5-0.2-0.6-2.7-0.4-7.8c-0.1-0.6-0.2-1.2-0.3-1.8c-0.2-1.8-0.4-3.6-0.4-5.4c-0.3-0.2-0.3-2.6-0.1-7.3c0-0.2,0-0.4,0-0.6
		c-0.1-0.6-0.2-1.2-0.2-1.7c-0.1-0.8-0.1-1.6-0.3-2.3c-0.1-0.5-0.2-1-0.2-1.5c0-0.2,0-0.3,0-0.5c0-0.1,0-0.2,0-0.3
		c0,0.1,0,0.1,0-0.1c-0.2-0.6-0.4-1.1-0.4-1.6c-0.2-0.4-0.3-1.5-0.1-3.4c0-0.2-0.1-0.4-0.1-0.5c-0.1-0.4-0.1-0.9-0.2-1.3
		c0-0.1,0-0.3,0-0.4c0,0,0,0,0,0c0,0,0-0.1,0-0.1c-0.1-0.5-0.2-1-0.2-1.5c-0.4,0.4-0.6-0.7-0.8-3.5c-0.2-1.9-0.1-3.4,0.1-4.2
		c0-0.2,0-0.5,0-0.7c-0.1-0.9-0.2-1.8-0.2-2.6c-0.2-1.1-0.4-2.5-0.5-4c-0.1-2.8-1-6.6-1.8-8.3c-0.9-1.7-1.4-3.7-1.1-4.5
		c0.3-0.9-0.4-3.4-1.5-5.6c-1.1-2.2-2.2-5.7-2.4-7.7s-0.6-4.5-1-5.6c-2-5.6-6.8-17.1-7.4-17.5c-0.3-0.3-0.8-1.6-0.9-2.9
		c-0.4-2.3-3.7-7.9-5.5-9.2c-0.5-0.3-0.9-1.3-1-2.1c-0.4-2.1-6.7-11.8-7.9-11.8c-0.5,0-0.6-0.5-0.3-1c0,0,0,0,0-0.1c0,0,0,0,0,0
		c0,0,0,0,0,0c-0.1-0.1-0.1-0.1-0.2-0.2c-0.1-0.1-0.2-0.1-0.3-0.2c-0.2-0.1-0.3-0.2-0.4-0.4c0-0.1-0.1-0.2-0.1-0.2c0,0,0-0.1,0-0.1
		c-0.3-0.2-0.5-0.6-0.5-1.2c0-0.7-2.2-3.7-4.8-6.5c-2.7-2.8-4.6-5.3-4.4-5.6c0.2-0.2-3.3-4.4-7.8-9.2c-3.4-3.6-6-6.3-8-8.4
		c-1-0.6-1.8-1.4-2.7-2c-0.6-0.4-1.1-0.9-1.7-1.4c-0.1,0-0.1-0.1-0.2-0.1c-0.4,0-0.8-0.3-0.9-0.7c0,0,0-0.1,0-0.2c0,0-0.1-0.1,0,0
		c-0.1-0.1-0.3-0.3-0.4-0.4c-0.2-0.2-0.5-0.4-0.8-0.6c-0.2-0.2-0.4-0.4-0.4-0.6c-0.5,0-1-0.4-1-0.9c0-0.6-2.1-2.9-4.6-5.3l-4.6-4.4
		l-0.7-8.7c-0.7-9.8-0.4-10.4,5.2-11.4c0.5-0.1,1-0.2,1.4-0.3c0.4-0.3,1-0.5,1.4-0.8c0.8-0.6,1.3-1.5,1.7-2.4
		c0.5-1.1,0.7-2.1,0.6-3.3c0-0.3-0.1-0.6-0.1-0.9c-0.2-0.3-0.3-0.6-0.3-0.9c0-2-3.2-4.4-6.5-4.8c-2.9-0.3-3-0.5-3-5.6V81h-81.5v4.6
		c0,5.3-1.5,7.3-5.2,6.9c-0.2,0-0.3,0-0.5,0c0,0-0.1,0-0.1,0c-0.1,0-0.3,0.1-0.4,0.1c-0.3,0.1-0.6,0.2-0.9,0.2
		c-0.6,0.3-1.2,0.6-1.8,0.8c-1.7,1.3-3.1,3.4-3.1,5.5c0,3.2,4.5,6.8,8.7,6.9c0,0,0.1,0,0.1,0c0.2,0,0.4,0,0.6,0c0.1,0,0.2,0,0.3,0
		c1.4,0.1,2.1,0.3,1.6,0.6c-0.1,0.1-0.2,0.1-0.3,0.3c0.4,0.8,0.3,1.6,0.4,2.5c0,0.1,0,0.2,0.1,0.3l-0.1-0.2c0.1,0.3,0.1,0.5,0.1,0.8
		c0.1,0.3,0.1,0.7,0.1,1c0,0.5,0.1,1,0.1,1.5c0,0.2,0,0.5,0,0.7c0.1,0.3,0.1,0.6,0,0.8c0.2,0.9,0.3,2.2,0.3,3.7
		c0,4.8-0.3,5.4-6.2,11.7c-3.5,3.7-6.7,6.9-7.2,7.1c-0.6,0.2-2.1,1.6-3.4,3c-1.3,1.4-4.3,4.6-6.7,7.1c-2.3,2.5-8.1,8.7-9.6,10.8
		c-1.6,2-3.3,4.2-3.9,4.9c-0.5,0.7-4.8,5.3-10.1,12.8c-5.3,7.6-15.6,24.8-15.6,27.5c0,1-3.4,8.2-3.8,9.8c-0.5,1.5-0.9,3.2-1.1,3.7
		c-0.2,0.6-0.6,2.6-1,4.5c-0.3,1.9-0.9,3.6-1.3,3.8c-0.5,0.1-3.3,11.4-4,14.5c-1.3,5.9-1.8,8.1-2.5,10.5c-0.9,3-2,14.6-1.8,19.4
		c0.1,2.6-0.4,7.4-1.1,10.5c-1.1,4.5-1.3,14.4-0.9,42.7c0.3,27.2,0,44.2-0.3,44.7s6.1,1,14.7,1.2c26.6,0.5,223.2,0.6,225.6,0
		c1.3-0.3,2.2-1.3,2.2-2.5v-32.9C264.9,320.9,264.5,307.7,264.5,307.4z M263.7,346.7c-0.1,7.6-0.3,1.7-0.3-13.2
		c0-14.8,0.2-21.1,0.3-13.8C263.9,326.9,263.9,339.1,263.7,346.7z"/>
</g>
<g id="layer106">
	<path class="st5" d="M217.2,839.2c-1.2-0.2-9.9-4-11.6-4.7c-3.8-1.6-13.6-11-13.6-13.1c-0.4-0.6-7.2-13.3-7.5-14.4
		c-0.8-2.5-2.5-2.6-2.5-0.1c0,2.4-3.8,11.3-5.1,12.2c-0.6,0.3-5.4,7.8-7.3,9.5c-2.6,2.4-9.7,7.5-14.1,9.1c-3.4,1.2-23,1.1-26-0.2
		c-3.7-1.6-10.5-6.5-13.1-8.9c-1.9-1.7-11.1-16.4-12-18.6c-1.6-3.9-1.7-4-3.4-2.3c-1,1-2,4.6-3,6.8c-1.1,2.2-3.4,5.8-4,6.8
		c-0.7,0.9-10.6,12-12.2,12.7c-0.9,0.4-2.5,0.7-4,1.4c-0.9,0.5-2.7,1.7-3.9,1.6c-7.1,1.8-13.3-7.6-17.2-15.7
		c-5.4-11.2-5.2-7.8-5.2-105.3v-90.5l-0.1-2c0,0,19.4,0.7,73.6,0.5c146.5-0.7,138.3-1.7,138.9,0.3l0.2,2.1
		c1.3,0.9,1.2,171.5-0.1,179c-0.5,3.3-2.6,8-2.8,9.1c-1.2,7.2-15,18.9-24.2,22.3C233.5,838.8,225.3,840.3,217.2,839.2z M263.7,670.7
		c-0.1-23.7-0.2-4.3-0.2,43.3c0,47.6,0.1,67,0.2,43.2C263.9,733.5,263.9,694.5,263.7,670.7z"/>
	<path class="st5" d="M127,555.1c-20.7-5.6-38.1-23.1-43.5-44.1c-2-7.8-2.1-22.6-0.1-30.1c5.9-22.4,23.3-39.6,45.6-45
		c7.1-1.6,20.9-1.6,28,0c22.2,5.4,39.6,22.5,45.6,45c2,7.6,2,22.2-0.1,30.1c-5.5,21.3-23.4,39.2-44.6,44.4
		C149.4,557.5,135.3,557.4,127,555.1z"/>
	<path class="st5" d="M264.7,308.1c0-0.2-0.1-0.5-0.1-0.7c-0.1-0.3-0.2-0.7-0.3-1c-0.1-0.4-0.1-0.8-0.2-1.2c0-0.2,0-0.4-0.1-0.6
		c0,0.2,0-0.2,0-0.2c0-0.2-0.1-0.3-0.1-0.5c0-0.1,0-0.2-0.1-0.2c0,0,0,0,0,0c0,0,0-0.1,0-0.1c-0.5-0.2-0.6-2.7-0.4-7.8
		c-0.1-0.6-0.2-1.2-0.3-1.8c-0.2-1.5-0.3-3.1-0.4-4.6c-0.3,0.5-0.5-0.3-0.8-2.9c-0.3-2.2-0.2-4.5,0.3-5c0.2-0.2,0.3-0.6,0.4-1.1
		c-0.1-0.5-0.1-1-0.2-1.6c-0.1-0.8-0.1-1.6-0.3-2.3c-0.1-0.5-0.2-1-0.2-1.5c0-0.2,0-0.3,0-0.5c0-0.1,0-0.2,0-0.3c0,0.1,0,0.1,0-0.1
		c-0.1-0.5-0.3-0.9-0.4-1.4c-0.3-0.1-0.4-1.2-0.1-3.1c0-0.1,0-0.2,0-0.3c-0.1-0.3-0.1-0.6-0.2-0.8c-0.1-0.4-0.1-0.9-0.2-1.3
		c0-0.1,0-0.3,0-0.4c0,0,0,0,0,0c0,0,0-0.1,0-0.1c-0.1-0.5-0.2-1-0.2-1.5c-0.4-1.4-0.9-5.4-1.1-10c-0.4-6.4-1.2-11.5-2.2-13.4
		c-0.8-1.6-1.3-3.6-1-4.4c0.6-1.5-1.3-6.4-2.4-6.4c-0.4,0-0.7-0.6-0.8-1.2c-0.6-6.3-1.2-9.8-2.1-12.3c-4.9-12.8-7.8-17.6-7.9-18.9
		c-0.2-3.3-12.8-22.9-13.6-23.2c-0.4-0.1-0.6-0.6-0.8-1.1c0,0,0,0-0.1,0c-0.1-0.1-0.2-0.2-0.3-0.3c0,0,0,0,0,0
		c-0.1-0.1-0.1-0.1-0.2-0.2c-0.1-0.1-0.2-0.1-0.3-0.2c-0.2-0.1-0.3-0.2-0.4-0.4c0-0.1-0.1-0.2-0.1-0.2c0-0.1,0-0.1,0-0.2
		c-0.3-0.2-0.4-0.6-0.4-1c0-0.7-2.1-3.5-4.7-6.3c-2.7-2.8-5-5.5-5.2-6c-1-2.3-13.9-14.9-20-21c-0.2-0.1-0.4-0.3-0.5-0.5
		c-0.5-0.5-0.9-0.9-1.2-1.2c0,0,0,0,0,0c-0.1-0.1-0.2-0.2-0.3-0.3c-0.7-0.7-1-1.1-1-1.2c0-0.6-2-2.9-4.5-5.3
		c-4.2-3.9-4.7-4.8-5.2-10l-0.6-5.8h-72.9l0.2,4.3c0.1,2.3,0.1,4.7,0.1,5.3c-0.1,0.7-2.5,4.3-5.5,8c-12,15.4-24.8,35.3-29.8,46.4
		c-0.6,1.4-2.9,6.3-5,10.9c-2.1,4.6-3.8,9.4-3.8,10.7c0,1.3-0.4,2.4-0.8,2.4c-0.4,0-0.8,0.8-0.9,1.8c-0.1,0.9-1.3,5.8-2.7,10.9
		c-4,14.2-7.6,36-9.1,56.3c-0.8,9.4-2.2,91.2-1.7,94.7l0.3,2.3l86.2,0.2c82.9,0.3,95.9,0.2,116.6-0.4c8.2-0.3,9.4-0.5,9.7-2.1
		c0.2-1.5,0.4-15.8,0.4-32.8C265,320.9,264.9,312.7,264.7,308.1z"/>
	<path class="st5" d="M192.1,104.1c0.8-0.6,1.3-1.5,1.7-2.4c0.5-1.1,0.7-2.1,0.6-3.3c0-0.3,0-0.6-0.1-0.8c-0.7-0.5-1.1-1.2-0.8-1.5
		c0.6-1-3.3-4.6-4.1-3.8c-0.3,0.3-2.2,0-4.2-0.6c-2.7-0.9-13.4-1.1-38.7-0.7l-35,0.5v15l34,0.5c40.1,0.6,37.3,0.6,40.8-0.8
		c1.5-0.7,3.3-1.1,4.3-1.2C191.1,104.6,191.6,104.5,192.1,104.1z"/>
</g>
<g id="layer107">
	<path class="st6" d="M229.3,772c-1.7-1-3.5-2.4-3.9-3.2c-0.5-0.7-1.1-33.7-1.4-73.3l-0.5-72l8.5,0.1c4.7,0,9.3,0.1,10.3,0.2
		c1.6,0.2,1.7,4.3,1.7,70.1c0,47.2-0.3,70.8-1.1,72.9C240.9,772.5,234.3,775.1,229.3,772z"/>
	<path class="st6" d="M128.6,555.4c-21.8-5.3-39.5-22.9-45.1-44.9c-1.9-7.6-1.9-21.2,0-29.4c4.9-20.4,23.4-39.2,44.1-44.5
		c7.7-2,23.2-2.1,30.4-0.2c16.6,4.4,31.2,16,39.3,31.3c18.4,35-1.7,78.6-40.3,87.7C149,557.3,136.5,557.3,128.6,555.4z"/>
	<path class="st6" d="M224,328.4c0-25.2,0.4-40.2,1-41.5c2.6-4.7,11.8-6.2,15.5-2.5c3.2,3.2,3.5,7,3.5,45.2V368h-10h-10V328.4z"/>
</g>
<g id="layer108">
	<path class="st7" d="M130.5,555.6c-8.7-2-14.1-4.3-21.7-9.3c-10.8-7-18.9-17.8-23.9-31.4c-1.9-5.4-2.3-8.4-2.3-18.9
		c0-13.7,1.5-19.8,7.7-31c4.1-7.4,15.8-18.8,23.2-22.6c11.2-5.9,15.7-6.9,30-6.9c12.5,0,13.4,0.1,21.5,3.4
		c17.4,7,29.5,19.7,36.1,38.1c2,5.5,2.3,8.4,2.3,19c0,10.5-0.4,13.5-2.3,18.9c-7,19.1-20.3,32.5-38.6,38.6
		C152.8,556.8,139.4,557.6,130.5,555.6z"/>
</g>
<g id="layer109">
	<path class="st8" d="M133,556c-2.5-0.4-6.6-1.5-9.1-2.4c-11.2-3.9-26.4-14.2-25.2-17.2c0.3-0.9,0-1.4-0.8-1.2s-1.3-0.3-1.1-1
		c0.1-0.8-0.2-1.1-0.8-0.7c-0.5,0.3-1.6-0.7-2.2-2.2c-0.7-1.5-1.9-3.3-2.7-3.9c-0.8-0.7-5-8.9-7.2-16.9c-2.1-7.5-1.8-24.8,0.6-31.2
		c0.5-1.4,2-6.8,4.4-11.5c2.8-5.3,13.8-17.5,15.6-18.9c1.6-1.3,3.1-2.3,3.2-2.1c0.2,0.1,1.2-0.7,2.3-1.8c1.2-1.2,2.5-1.8,2.9-1.5
		c0.5,0.2,1.2-0.2,1.5-1.1c0.3-0.8,1-1.2,1.6-0.9c0.5,0.3,1,0.2,1-0.3c0-0.8,3.8-2.3,5.5-2.2c0.3,0,2-0.7,3.7-1.6
		c2.5-1.3,6-1.7,14.8-1.7c15.2,0.2,17,0.3,19.8,1.7c1.1,0.6,6.5,2.4,9.6,4.1c3.8,1.9,7.7,4.8,8.7,5.5c4.2,3.1,13.1,11.9,18.4,21.8
		c4.7,8.9,5.9,18.8,6.2,22.7c0.2,3.5,0.4,11.7-2,20.6c-1.8,6.6-5.4,13.4-9.6,19.4c-9.1,13.1-25.7,20.7-31.6,22.6
		C153.7,556.3,139.7,557.3,133,556z"/>
</g>
<path class="st5" d="M73.7,837"/>
</svg>
